<?xml version="1.0" encoding="UTF-8" standalone="no"?>
<!-- Created with Inkscape (http://www.inkscape.org/) -->

<svg
   width="136"
   height="128"
   viewBox="0 0 35.983333 33.866668"
   version="1.1"
   id="svg5"
   xmlns:xlink="http://www.w3.org/1999/xlink"
   xmlns="http://www.w3.org/2000/svg"
   xmlns:svg="http://www.w3.org/2000/svg">
  <defs
     id="defs2">
    <linearGradient
       id="linearGradient8925">
      <stop
         style="stop-color:#9d9999;stop-opacity:1;"
         offset="0"
         id="stop8921" />
      <stop
         style="stop-color:#d4d4d4;stop-opacity:1"
         offset="0.02777782"
         id="stop10031" />
      <stop
         style="stop-color:#9d9999;stop-opacity:1;"
         offset="0.0555556"
         id="stop9837" />
      <stop
         style="stop-color:#9d9999;stop-opacity:1;"
         offset="0.94444454"
         id="stop10673" />
      <stop
         style="stop-color:#d0d0d0;stop-opacity:1"
         offset="0.97222233"
         id="stop10675" />
      <stop
         style="stop-color:#9d9999;stop-opacity:1"
         offset="1"
         id="stop8923" />
    </linearGradient>
    <linearGradient
       id="linearGradient4203">
      <stop
         style="stop-color:#929292;stop-opacity:1"
         offset="0"
         id="stop4199" />
      <stop
         style="stop-color:#ffffff;stop-opacity:1"
         offset="0.16666692"
         id="stop4642" />
      <stop
         style="stop-color:#ffffff;stop-opacity:1"
         offset="0.33333349"
         id="stop2632" />
      <stop
         style="stop-color:#c7c7c7;stop-opacity:1"
         offset="1"
         id="stop4201" />
    </linearGradient>
    <clipPath
       clipPathUnits="userSpaceOnUse"
       id="clipPath1283">
      <path
         style="fill:#ffffff;fill-opacity:1;stroke:#000000;stroke-width:0.999999;stroke-linecap:round;stroke-linejoin:round;stroke-miterlimit:4;stroke-dasharray:none;stroke-opacity:0.989505"
         id="path1285"
         width="8.467"
         height="10.583334"
         x="35.983334"
         y="25.4"
         d="M 37.041667,25.4 H 43.392 a 1.0583333,1.0583333 45 0 1 1.058334,1.058333 l 0,8.466667 A 1.0583333,1.0583333 135 0 1 43.392,35.983334 H 37.041667 A 1.0583333,1.0583333 45 0 1 35.983334,34.925 V 26.458333 A 1.0583333,1.0583333 135 0 1 37.041667,25.4 Z" />
    </clipPath>
    <clipPath
       clipPathUnits="userSpaceOnUse"
       id="clipPath1805">
      <path
         style="fill:#ffffff;fill-opacity:1;stroke:#000000;stroke-width:0.999999;stroke-linecap:round;stroke-linejoin:round;stroke-miterlimit:4;stroke-dasharray:none;stroke-opacity:0.989505"
         id="path1807"
         width="19.049999"
         height="23.283333"
         x="19.049999"
         y="23.283333"
         d="m 20.108333,23.283333 h 16.933332 a 1.0583333,1.0583333 45 0 1 1.058333,1.058333 v 21.166666 a 1.0583333,1.0583333 135 0 1 -1.058333,1.058334 H 20.108333 A 1.0583333,1.0583333 45 0 1 19.049999,45.508332 V 24.341666 a 1.0583333,1.0583333 135 0 1 1.058334,-1.058333 z" />
    </clipPath>
    <clipPath
       clipPathUnits="userSpaceOnUse"
       id="clipPath2899">
      <path
         style="fill:none;stroke:#000000;stroke-width:0;stroke-linecap:butt;stroke-linejoin:miter;stroke-miterlimit:4;stroke-dasharray:none;stroke-opacity:1"
         d="M 14.816666,10.583333 19.05,14.816666 v -4.233333 z"
         id="path2901" />
    </clipPath>
    <linearGradient
       xlink:href="#linearGradient4203"
       id="linearGradient4205"
       x1="21.166666"
       y1="44.450001"
       x2="22.754168"
       y2="42.862499"
       gradientUnits="userSpaceOnUse"
       gradientTransform="translate(4.2333333)" />
    <linearGradient
       xlink:href="#linearGradient8925"
       id="linearGradient8927"
       x1="19.049999"
       y1="39.158333"
       x2="38.099998"
       y2="39.158333"
       gradientUnits="userSpaceOnUse"
       gradientTransform="translate(4.2333333)" />
    <clipPath
       clipPathUnits="userSpaceOnUse"
       id="clipPath20685">
      <path
         style="fill:#ffffff;fill-opacity:1;stroke:#9d9999;stroke-width:0;stroke-linecap:round;stroke-linejoin:round;stroke-miterlimit:4;stroke-dasharray:none;stroke-opacity:1"
         id="path20687"
         width="19.049999"
         height="23.283333"
         x="23.283335"
         y="23.283333"
         d="m 24.341668,23.283333 h 16.933333 a 1.0583333,1.0583333 45 0 1 1.058333,1.058333 v 21.166666 a 1.0583333,1.0583333 135 0 1 -1.058333,1.058334 H 24.341668 A 1.0583333,1.0583333 45 0 1 23.283335,45.508332 V 24.341666 a 1.0583333,1.0583333 135 0 1 1.058333,-1.058333 z" />
    </clipPath>
  </defs>
  <g
     id="layer2"
     transform="translate(-16.933332,-21.166666)">
    <g
       id="icon">
      <rect
         style="fill:#073ea3;fill-opacity:0.000491094;stroke:#754f07;stroke-width:0;stroke-linejoin:round;stroke-miterlimit:4;stroke-dasharray:none;stroke-opacity:1"
         id="rect22121"
         width="33.866665"
         height="33.866665"
         x="19.049999"
         y="21.166666" />
      <rect
         style="fill:#f6f6f6;fill-opacity:0;stroke:#4d4d4d;stroke-width:0;stroke-linecap:round;stroke-linejoin:round;stroke-miterlimit:4;stroke-dasharray:none;stroke-opacity:0"
         id="rect33305"
         width="33.866665"
         height="33.866665"
         x="16.933332"
         y="21.166666" />
      <g
         id="g22097">
        <path
           style="fill:url(#linearGradient8927);fill-opacity:1;stroke:#000000;stroke-width:0;stroke-linecap:round;stroke-linejoin:round;stroke-miterlimit:4;stroke-dasharray:none;stroke-opacity:0.989505"
           id="path2221"
           width="19.049999"
           height="23.283333"
           x="23.283335"
           y="27.516666"
           d="M 24.341668,27.516666 H 41.275001 A 1.0583333,1.0583333 45 0 1 42.333334,28.575 v 21.166666 a 1.0583333,1.0583333 135 0 1 -1.058333,1.058333 H 24.341668 A 1.0583333,1.0583333 45 0 1 23.283335,49.741666 V 28.575 a 1.0583333,1.0583333 135 0 1 1.058333,-1.058334 z" />
        <path
           style="fill:#ffffff;fill-opacity:1;stroke:#9d9999;stroke-width:0;stroke-linecap:round;stroke-linejoin:round;stroke-miterlimit:4;stroke-dasharray:none;stroke-opacity:1"
           id="path1799"
           width="19.049999"
           height="23.283333"
           x="23.283335"
           y="23.283333"
           d="m 24.341668,23.283333 h 16.933333 a 1.0583333,1.0583333 45 0 1 1.058333,1.058333 v 21.166666 a 1.0583333,1.0583333 135 0 1 -1.058333,1.058334 H 24.341668 A 1.0583333,1.0583333 45 0 1 23.283335,45.508332 V 24.341666 a 1.0583333,1.0583333 135 0 1 1.058333,-1.058333 z" />
        <rect
           style="fill:#ee5bd9;fill-opacity:1;stroke:#000000;stroke-width:0;stroke-linecap:round;stroke-linejoin:round;stroke-miterlimit:4;stroke-dasharray:none;stroke-opacity:0.989505"
           id="rect1691"
           width="19.049999"
           height="4.2333331"
           x="19.049999"
           y="23.283333"
           clip-path="url(#clipPath1805)"
           transform="translate(4.2333333)" />
        <path
           style="fill:#ffffff;fill-opacity:0.000792559;stroke:#000000;stroke-width:0;stroke-linecap:round;stroke-linejoin:round;stroke-miterlimit:4;stroke-dasharray:none;stroke-opacity:0.989505"
           id="path1809"
           width="19.049999"
           height="23.283333"
           x="23.283335"
           y="23.283333"
           d="m 24.341668,23.283333 h 16.933333 a 1.0583333,1.0583333 45 0 1 1.058333,1.058333 v 21.166666 a 1.0583333,1.0583333 135 0 1 -1.058333,1.058334 H 24.341668 A 1.0583333,1.0583333 45 0 1 23.283335,45.508332 V 24.341666 a 1.0583333,1.0583333 135 0 1 1.058333,-1.058333 z" />
        <rect
           style="fill:#4d4d4d;fill-opacity:1;stroke:#ffffff;stroke-width:0;stroke-linecap:round;stroke-linejoin:round;stroke-miterlimit:4;stroke-dasharray:none;stroke-opacity:0.989505"
           id="rect1963"
           width="10.583343"
           height="1.0583315"
           x="27.516657"
           y="24.870834" />
        <rect
           style="fill:#4d4d4d;fill-opacity:1;stroke:#ffffff;stroke-width:0;stroke-linecap:round;stroke-linejoin:round;stroke-miterlimit:4;stroke-dasharray:none;stroke-opacity:0.989505"
           id="rect2291"
           width="14.816667"
           height="0.52916735"
           x="25.4"
           y="29.104166" />
        <rect
           style="fill:#4d4d4d;fill-opacity:1;stroke:#ffffff;stroke-width:0;stroke-linecap:round;stroke-linejoin:round;stroke-miterlimit:4;stroke-dasharray:none;stroke-opacity:0.989505"
           id="rect2517"
           width="8.4666672"
           height="0.52916735"
           x="25.4"
           y="31.220833" />
        <rect
           style="fill:#4d4d4d;fill-opacity:1;stroke:#ffffff;stroke-width:0;stroke-linecap:round;stroke-linejoin:round;stroke-miterlimit:4;stroke-dasharray:none;stroke-opacity:0.989505"
           id="rect2519"
           width="10.583334"
           height="0.52916735"
           x="25.4"
           y="33.337502" />
        <rect
           style="fill:#aaa7a7;fill-opacity:0.323422;stroke:#9d9999;stroke-width:0;stroke-linecap:round;stroke-linejoin:round;stroke-miterlimit:4;stroke-dasharray:none;stroke-opacity:1"
           id="rect9163"
           width="0.26458403"
           height="18.785414"
           x="23.283333"
           y="27.516668"
           clip-path="url(#clipPath20685)" />
        <path
           style="fill:url(#linearGradient4205);fill-opacity:1;stroke:#000000;stroke-width:0;stroke-linecap:butt;stroke-linejoin:miter;stroke-miterlimit:4;stroke-dasharray:none;stroke-opacity:1"
           d="m 23.283333,42.333333 4.233333,4.233333 v -3.175 a 1.0583333,1.0583333 45 0 0 -1.058333,-1.058333 z"
           id="path3016" />
        <path
           style="fill:#ffffff;fill-opacity:1;stroke:#4d4d4d;stroke-width:0;stroke-linecap:round;stroke-linejoin:round;stroke-miterlimit:4;stroke-dasharray:none;stroke-opacity:1"
           id="rect25885"
           width="10.583334"
           height="9.5250025"
           x="28.574999"
           y="34.924999"
           d="m 29.104166,34.924999 h 9.525 a 0.52916667,0.52916667 45 0 1 0.529167,0.529167 v 8.466669 a 0.52916667,0.52916667 135 0 1 -0.529167,0.529167 h -9.525 a 0.52916667,0.52916667 45 0 1 -0.529167,-0.529167 v -8.466669 a 0.52916667,0.52916667 135 0 1 0.529167,-0.529167 z" />
        <path
           style="fill:none;stroke:#790068;stroke-width:0.264583;stroke-linecap:butt;stroke-linejoin:miter;stroke-miterlimit:4;stroke-dasharray:none;stroke-opacity:1"
           d="m 29.633333,40.745833 1.058333,-1.5875 1.058333,0.79375 1.058334,-1.852083 1.058333,2.38125 1.058334,-0.529166 1.058333,-1.322917 1.322917,-2.38125 0.793749,0.79375"
           id="path20832" />
        <rect
           style="fill:#4d4d4d;fill-opacity:1;stroke:#4d4d4d;stroke-width:0;stroke-linecap:round;stroke-linejoin:round;stroke-opacity:0"
           id="rect991"
           width="1.0583333"
           height="0.26458332"
           x="28.575001"
           y="40.216667" />
        <rect
           style="fill:#4d4d4d;fill-opacity:1;stroke:#4d4d4d;stroke-width:0;stroke-linecap:round;stroke-linejoin:round;stroke-opacity:0"
           id="rect2599"
           width="0.26458332"
           height="6.3499985"
           x="29.36875"
           y="35.983334" />
        <rect
           style="fill:#4d4d4d;fill-opacity:1;stroke:#4d4d4d;stroke-width:0;stroke-linecap:round;stroke-linejoin:round;stroke-opacity:0"
           id="rect2841"
           width="0.52916729"
           height="0.26458332"
           x="29.104166"
           y="41.275002" />
        <rect
           style="fill:#4d4d4d;fill-opacity:1;stroke:#4d4d4d;stroke-width:0;stroke-linecap:round;stroke-linejoin:round;stroke-opacity:0"
           id="rect2923"
           width="1.0583333"
           height="0.26458332"
           x="28.575001"
           y="38.099998" />
        <rect
           style="fill:#4d4d4d;fill-opacity:1;stroke:#4d4d4d;stroke-width:0;stroke-linecap:round;stroke-linejoin:round;stroke-opacity:0"
           id="rect3085"
           width="0.52916729"
           height="0.26458332"
           x="29.104166"
           y="39.158333" />
        <rect
           style="fill:#4d4d4d;fill-opacity:1;stroke:#4d4d4d;stroke-width:0;stroke-linecap:round;stroke-linejoin:round;stroke-opacity:0"
           id="rect3087"
           width="0.52916729"
           height="0.26458332"
           x="29.104166"
           y="37.041668" />
        <rect
           style="fill:#4d4d4d;fill-opacity:1;stroke:#4d4d4d;stroke-width:0;stroke-linecap:round;stroke-linejoin:round;stroke-opacity:0"
           id="rect3098"
           width="0.26458332"
           height="8.7312489"
           x="42.333332"
           y="-38.099998"
           transform="rotate(90)" />
        <rect
           style="fill:#4d4d4d;fill-opacity:1;stroke:#4d4d4d;stroke-width:0;stroke-linecap:round;stroke-linejoin:round;stroke-opacity:0"
           id="rect3100"
           width="0.52916729"
           height="0.26458332"
           x="42.333332"
           y="-30.691668"
           transform="rotate(90)" />
        <rect
           style="fill:#4d4d4d;fill-opacity:1;stroke:#4d4d4d;stroke-width:0;stroke-linecap:round;stroke-linejoin:round;stroke-opacity:0"
           id="rect3102"
           width="1.0583333"
           height="0.26458332"
           x="42.333332"
           y="-31.75"
           transform="rotate(90)" />
        <rect
           style="fill:#e4e3e3;fill-opacity:1;stroke:#9d9999;stroke-width:0;stroke-linecap:round;stroke-linejoin:round;stroke-miterlimit:4;stroke-dasharray:none;stroke-opacity:1"
           id="rect20677"
           width="0.26458403"
           height="18.785414"
           x="42.068748"
           y="27.516666" />
        <g
           id="g22065">
          <rect
             style="fill:#4d4d4d;fill-opacity:1;stroke:#4d4d4d;stroke-width:0;stroke-linecap:round;stroke-linejoin:round;stroke-opacity:0"
             id="rect3264"
             width="0.52916729"
             height="0.26458332"
             x="42.333332"
             y="-32.808334"
             transform="rotate(90)" />
          <rect
             style="fill:#4d4d4d;fill-opacity:1;stroke:#4d4d4d;stroke-width:0;stroke-linecap:round;stroke-linejoin:round;stroke-opacity:0"
             id="rect3346"
             width="1.0583333"
             height="0.26458332"
             x="42.333332"
             y="-33.866665"
             transform="rotate(90)" />
          <rect
             style="fill:#4d4d4d;fill-opacity:1;stroke:#4d4d4d;stroke-width:0;stroke-linecap:round;stroke-linejoin:round;stroke-opacity:0"
             id="rect3428"
             width="0.52916729"
             height="0.26458332"
             x="42.333332"
             y="-34.924999"
             transform="rotate(90)" />
          <rect
             style="fill:#4d4d4d;fill-opacity:1;stroke:#4d4d4d;stroke-width:0;stroke-linecap:round;stroke-linejoin:round;stroke-opacity:0"
             id="rect3510"
             width="1.0583333"
             height="0.26458332"
             x="42.333332"
             y="-35.983334"
             transform="rotate(90)" />
          <rect
             style="fill:#4d4d4d;fill-opacity:1;stroke:#4d4d4d;stroke-width:0;stroke-linecap:round;stroke-linejoin:round;stroke-opacity:0"
             id="rect3592"
             width="0.52916729"
             height="0.26458332"
             x="42.333332"
             y="-37.041668"
             transform="rotate(90)" />
          <path
             style="fill:#a36d07;fill-opacity:1;stroke:#754f07;stroke-width:0;stroke-linecap:butt;stroke-linejoin:round;stroke-miterlimit:4;stroke-dasharray:none;stroke-opacity:1"
             d="m 50.8,40.745834 -3.241119,0.216074 c -0.40186,0.02679 -0.824213,0.360771 -0.969113,0.736479 -0.140796,0.365068 -0.333499,0.810479 -0.551832,1.166491 -0.152314,0.248362 -0.490445,0.595573 -0.757592,0.709641 -0.50064,0.213765 -1.160006,0.21377 -1.660653,1.4e-5 -0.267169,-0.114069 -0.60546,-0.461461 -0.757882,-0.710071 -0.25739,-0.419819 -0.479139,-0.963812 -0.622184,-1.3538 -0.100536,-0.274095 -0.407266,-0.516004 -0.69887,-0.535445 l -2.91276,-0.194183 A 0.49506356,0.49506356 136.90704 0 0 38.1,41.275001 v 4.021666 c 0,0.292251 -0.227181,0.460703 -0.512744,0.398872 -0.441753,-0.09565 -1.081542,-0.193191 -1.557576,-0.09476 -0.281679,0.05825 -0.644298,0.39756 -0.758366,0.664707 -0.213766,0.50064 -0.213771,1.160007 -1.4e-5,1.660654 0.11407,0.267168 0.477111,0.606763 0.759342,0.66494 0.476279,0.09818 1.116086,4.88e-4 1.557574,-0.09516 C 37.873242,48.434168 38.1,48.60275 38.1,48.895001 v 4.021663 a 0.52866657,0.52866657 44.972913 0 0 0.529166,0.528667 l 4.229745,-0.004 c 0.29225,-2.76e-4 0.439281,-0.220118 0.350479,-0.498509 -0.140026,-0.438974 -0.301044,-1.081468 -0.235366,-1.56091 0.03888,-0.283853 0.378485,-0.650734 0.645632,-0.764802 0.440108,-0.18792 1.002881,-0.210645 1.472657,-0.06817 0.381608,0.115731 0.842381,0.637461 0.860486,1.030868 0.0206,0.447523 -0.09807,0.981483 -0.205946,1.363326 -0.07928,0.280616 0.07536,0.502664 0.36761,0.502664 l 4.15637,-2e-6 A 0.52916687,0.52916687 134.99999 0 0 50.8,52.916625 v -4.021663 c 0,-0.292251 -0.227203,-0.460696 -0.512796,-0.398861 -0.441766,0.09565 -1.081553,0.193183 -1.557573,0.09474 -0.28165,-0.05825 -0.644247,-0.39755 -0.758315,-0.664697 -0.213766,-0.50064 -0.213771,-1.160007 -1.4e-5,-1.660654 0.11407,-0.267168 0.477111,-0.606764 0.759342,-0.66494 0.476278,-0.09818 1.116084,-4.88e-4 1.557572,0.09516 C 50.573242,45.757461 50.8,45.588879 50.8,45.296628 v -4.550833"
             id="path20415" />
          <path
             style="fill:#f1a20e;fill-opacity:1;stroke:#754f07;stroke-width:0;stroke-linecap:butt;stroke-linejoin:round;stroke-miterlimit:4;stroke-dasharray:none;stroke-opacity:1"
             d="m 50.8,40.216667 h -4.550833 c -0.292251,0 -0.460703,0.227181 -0.398872,0.512744 0.09565,0.441753 0.193192,1.081542 0.09476,1.557576 -0.05825,0.281679 -0.397561,0.644297 -0.664708,0.758365 -0.50064,0.213765 -1.160006,0.21377 -1.660653,1.4e-5 -0.267169,-0.114069 -0.606765,-0.47711 -0.664941,-0.759341 -0.09818,-0.476278 -4.89e-4,-1.116085 0.09516,-1.557573 0.06175,-0.285026 -0.106829,-0.511785 -0.39908,-0.511785 H 38.629167 A 0.52916667,0.52916667 135 0 0 38.1,40.745834 V 44.7675 c 0,0.292251 -0.227203,0.460696 -0.512796,0.398861 -0.441767,-0.09565 -1.081554,-0.193183 -1.557575,-0.09474 -0.28165,0.05825 -0.644247,0.39755 -0.758315,0.664697 -0.213766,0.50064 -0.213771,1.160007 -1.4e-5,1.660654 0.11407,0.267168 0.477111,0.606763 0.759342,0.66494 0.476279,0.09818 1.116086,4.88e-4 1.557574,-0.09516 C 37.873242,47.905001 38.1,48.073583 38.1,48.365834 v 4.021663 a 0.52916688,0.52916688 45.000011 0 0 0.529167,0.529167 l 4.021666,2e-6 c 0.292251,0 0.460703,-0.227181 0.398872,-0.512744 -0.09565,-0.441753 -0.193192,-1.081541 -0.09476,-1.557575 0.05825,-0.281679 0.397561,-0.644297 0.664708,-0.758365 0.50064,-0.213766 1.160007,-0.213771 1.660654,-1.4e-5 0.267168,0.11407 0.606764,0.477111 0.66494,0.759342 0.09818,0.476278 4.89e-4,1.116084 -0.09516,1.557572 -0.06175,0.285026 0.106829,0.511784 0.39908,0.511784 l 4.021666,-2e-6 A 0.52916688,0.52916688 134.99999 0 0 50.8,52.387497 v -4.021663 c 0,-0.292251 -0.227203,-0.460696 -0.512796,-0.398861 -0.441766,0.09565 -1.081553,0.193183 -1.557573,0.09474 -0.28165,-0.05825 -0.644247,-0.39755 -0.758315,-0.664697 -0.213766,-0.50064 -0.213771,-1.160007 -1.4e-5,-1.660654 0.11407,-0.267168 0.477111,-0.606764 0.759342,-0.66494 0.476278,-0.09818 1.116084,-4.88e-4 1.557572,0.09516 C 50.573242,45.228333 50.8,45.059751 50.8,44.7675 v -4.550833"
             id="path956" />
        </g>
      </g>
    </g>
  </g>
</svg>
